<mxfile host="app.diagrams.net" modified="2024-01-04T21:33:52.283Z" agent="Mozilla/5.0 (Macintosh; Intel Mac OS X 10_15_7) AppleWebKit/537.36 (KHTML, like Gecko) Chrome/119.0.0.0 Safari/537.36" etag="mX0P5YwiAdsIn6EKOwTJ" version="22.1.16" type="device">
  <diagram id="R2lEEEUBdFMjLlhIrx00" name="DiagramaER">
    <mxGraphModel dx="954" dy="497" grid="1" gridSize="10" guides="1" tooltips="1" connect="1" arrows="1" fold="1" page="1" pageScale="1" pageWidth="850" pageHeight="1100" math="0" shadow="0" extFonts="Permanent Marker^https://fonts.googleapis.com/css?family=Permanent+Marker">
      <root>
        <mxCell id="0" />
        <mxCell id="1" parent="0" />
        <mxCell id="kFgzBcWU6s6wOPXz50ga-1" value="Cliente" style="whiteSpace=wrap;html=1;align=center;" vertex="1" parent="1">
          <mxGeometry x="180" y="180" width="100" height="40" as="geometry" />
        </mxCell>
        <mxCell id="kFgzBcWU6s6wOPXz50ga-2" value="PlanInternet" style="whiteSpace=wrap;html=1;align=center;" vertex="1" parent="1">
          <mxGeometry x="580" y="180" width="100" height="40" as="geometry" />
        </mxCell>
        <mxCell id="kFgzBcWU6s6wOPXz50ga-3" value="contrata" style="shape=rhombus;perimeter=rhombusPerimeter;whiteSpace=wrap;html=1;align=center;" vertex="1" parent="1">
          <mxGeometry x="365" y="170" width="120" height="60" as="geometry" />
        </mxCell>
        <mxCell id="kFgzBcWU6s6wOPXz50ga-5" value="" style="endArrow=none;html=1;rounded=0;entryX=0;entryY=0.5;entryDx=0;entryDy=0;exitX=1;exitY=0.5;exitDx=0;exitDy=0;" edge="1" parent="1" source="kFgzBcWU6s6wOPXz50ga-3" target="kFgzBcWU6s6wOPXz50ga-2">
          <mxGeometry relative="1" as="geometry">
            <mxPoint x="340" y="260" as="sourcePoint" />
            <mxPoint x="500" y="260" as="targetPoint" />
          </mxGeometry>
        </mxCell>
        <mxCell id="kFgzBcWU6s6wOPXz50ga-6" value="N" style="resizable=0;html=1;whiteSpace=wrap;align=right;verticalAlign=bottom;" connectable="0" vertex="1" parent="kFgzBcWU6s6wOPXz50ga-5">
          <mxGeometry x="1" relative="1" as="geometry" />
        </mxCell>
        <mxCell id="kFgzBcWU6s6wOPXz50ga-7" value="" style="endArrow=none;html=1;rounded=0;entryX=1;entryY=0.5;entryDx=0;entryDy=0;exitX=0;exitY=0.5;exitDx=0;exitDy=0;" edge="1" parent="1" source="kFgzBcWU6s6wOPXz50ga-3" target="kFgzBcWU6s6wOPXz50ga-1">
          <mxGeometry relative="1" as="geometry">
            <mxPoint x="340" y="260" as="sourcePoint" />
            <mxPoint x="500" y="260" as="targetPoint" />
          </mxGeometry>
        </mxCell>
        <mxCell id="kFgzBcWU6s6wOPXz50ga-8" value="1" style="resizable=0;html=1;whiteSpace=wrap;align=right;verticalAlign=bottom;" connectable="0" vertex="1" parent="kFgzBcWU6s6wOPXz50ga-7">
          <mxGeometry x="1" relative="1" as="geometry">
            <mxPoint x="10" as="offset" />
          </mxGeometry>
        </mxCell>
        <mxCell id="kFgzBcWU6s6wOPXz50ga-10" value="dni" style="ellipse;whiteSpace=wrap;html=1;align=center;fontStyle=4;" vertex="1" parent="1">
          <mxGeometry x="280" y="110" width="60" height="30" as="geometry" />
        </mxCell>
        <mxCell id="kFgzBcWU6s6wOPXz50ga-11" value="nombre" style="ellipse;whiteSpace=wrap;html=1;align=center;" vertex="1" parent="1">
          <mxGeometry x="190" y="80" width="70" height="30" as="geometry" />
        </mxCell>
        <mxCell id="kFgzBcWU6s6wOPXz50ga-12" value="apellido" style="ellipse;whiteSpace=wrap;html=1;align=center;" vertex="1" parent="1">
          <mxGeometry x="80" y="105" width="60" height="25" as="geometry" />
        </mxCell>
        <mxCell id="kFgzBcWU6s6wOPXz50ga-13" value="fecha_nacimiento" style="ellipse;whiteSpace=wrap;html=1;align=center;" vertex="1" parent="1">
          <mxGeometry x="20" y="160" width="100" height="40" as="geometry" />
        </mxCell>
        <mxCell id="kFgzBcWU6s6wOPXz50ga-14" value="provincia" style="ellipse;whiteSpace=wrap;html=1;align=center;" vertex="1" parent="1">
          <mxGeometry x="30" y="240" width="80" height="30" as="geometry" />
        </mxCell>
        <mxCell id="kFgzBcWU6s6wOPXz50ga-15" value="ciudad" style="ellipse;whiteSpace=wrap;html=1;align=center;" vertex="1" parent="1">
          <mxGeometry x="140" y="270" width="80" height="30" as="geometry" />
        </mxCell>
        <mxCell id="kFgzBcWU6s6wOPXz50ga-16" value="" style="endArrow=none;html=1;rounded=0;entryX=0.5;entryY=1;entryDx=0;entryDy=0;exitX=1;exitY=0;exitDx=0;exitDy=0;" edge="1" parent="1" source="kFgzBcWU6s6wOPXz50ga-1" target="kFgzBcWU6s6wOPXz50ga-10">
          <mxGeometry width="50" height="50" relative="1" as="geometry">
            <mxPoint x="460" y="290" as="sourcePoint" />
            <mxPoint x="510" y="240" as="targetPoint" />
          </mxGeometry>
        </mxCell>
        <mxCell id="kFgzBcWU6s6wOPXz50ga-17" value="" style="endArrow=none;html=1;rounded=0;exitX=0.5;exitY=1;exitDx=0;exitDy=0;entryX=0.75;entryY=0;entryDx=0;entryDy=0;" edge="1" parent="1" source="kFgzBcWU6s6wOPXz50ga-11" target="kFgzBcWU6s6wOPXz50ga-1">
          <mxGeometry width="50" height="50" relative="1" as="geometry">
            <mxPoint x="460" y="290" as="sourcePoint" />
            <mxPoint x="510" y="240" as="targetPoint" />
          </mxGeometry>
        </mxCell>
        <mxCell id="kFgzBcWU6s6wOPXz50ga-18" value="" style="endArrow=none;html=1;rounded=0;exitX=1;exitY=1;exitDx=0;exitDy=0;entryX=0.25;entryY=0;entryDx=0;entryDy=0;" edge="1" parent="1" source="kFgzBcWU6s6wOPXz50ga-12" target="kFgzBcWU6s6wOPXz50ga-1">
          <mxGeometry width="50" height="50" relative="1" as="geometry">
            <mxPoint x="460" y="290" as="sourcePoint" />
            <mxPoint x="510" y="240" as="targetPoint" />
          </mxGeometry>
        </mxCell>
        <mxCell id="kFgzBcWU6s6wOPXz50ga-19" value="" style="endArrow=none;html=1;rounded=0;exitX=1;exitY=0.5;exitDx=0;exitDy=0;entryX=0;entryY=0.5;entryDx=0;entryDy=0;" edge="1" parent="1" source="kFgzBcWU6s6wOPXz50ga-13" target="kFgzBcWU6s6wOPXz50ga-1">
          <mxGeometry width="50" height="50" relative="1" as="geometry">
            <mxPoint x="460" y="290" as="sourcePoint" />
            <mxPoint x="510" y="240" as="targetPoint" />
          </mxGeometry>
        </mxCell>
        <mxCell id="kFgzBcWU6s6wOPXz50ga-20" value="" style="endArrow=none;html=1;rounded=0;exitX=1;exitY=0.5;exitDx=0;exitDy=0;entryX=0.25;entryY=1;entryDx=0;entryDy=0;" edge="1" parent="1" source="kFgzBcWU6s6wOPXz50ga-14" target="kFgzBcWU6s6wOPXz50ga-1">
          <mxGeometry width="50" height="50" relative="1" as="geometry">
            <mxPoint x="460" y="290" as="sourcePoint" />
            <mxPoint x="510" y="240" as="targetPoint" />
          </mxGeometry>
        </mxCell>
        <mxCell id="kFgzBcWU6s6wOPXz50ga-21" value="" style="endArrow=none;html=1;rounded=0;exitX=0.5;exitY=0;exitDx=0;exitDy=0;entryX=0.5;entryY=1;entryDx=0;entryDy=0;" edge="1" parent="1" source="kFgzBcWU6s6wOPXz50ga-15" target="kFgzBcWU6s6wOPXz50ga-1">
          <mxGeometry width="50" height="50" relative="1" as="geometry">
            <mxPoint x="460" y="290" as="sourcePoint" />
            <mxPoint x="510" y="240" as="targetPoint" />
          </mxGeometry>
        </mxCell>
        <mxCell id="kFgzBcWU6s6wOPXz50ga-23" value="velocidad" style="ellipse;whiteSpace=wrap;html=1;align=center;" vertex="1" parent="1">
          <mxGeometry x="620" y="100" width="90" height="30" as="geometry" />
        </mxCell>
        <mxCell id="kFgzBcWU6s6wOPXz50ga-24" value="identificador" style="ellipse;whiteSpace=wrap;html=1;align=center;fontStyle=4;" vertex="1" parent="1">
          <mxGeometry x="470" y="105" width="100" height="40" as="geometry" />
        </mxCell>
        <mxCell id="kFgzBcWU6s6wOPXz50ga-25" value="precio" style="ellipse;whiteSpace=wrap;html=1;align=center;" vertex="1" parent="1">
          <mxGeometry x="750" y="180" width="80" height="30" as="geometry" />
        </mxCell>
        <mxCell id="kFgzBcWU6s6wOPXz50ga-26" value="descuento" style="ellipse;whiteSpace=wrap;html=1;align=center;" vertex="1" parent="1">
          <mxGeometry x="640" y="265" width="80" height="25" as="geometry" />
        </mxCell>
        <mxCell id="kFgzBcWU6s6wOPXz50ga-28" value="" style="endArrow=none;html=1;rounded=0;entryX=0.5;entryY=1;entryDx=0;entryDy=0;exitX=0.25;exitY=0;exitDx=0;exitDy=0;" edge="1" parent="1" source="kFgzBcWU6s6wOPXz50ga-2" target="kFgzBcWU6s6wOPXz50ga-24">
          <mxGeometry width="50" height="50" relative="1" as="geometry">
            <mxPoint x="370" y="290" as="sourcePoint" />
            <mxPoint x="420" y="240" as="targetPoint" />
          </mxGeometry>
        </mxCell>
        <mxCell id="kFgzBcWU6s6wOPXz50ga-29" value="" style="endArrow=none;html=1;rounded=0;entryX=0.5;entryY=1;entryDx=0;entryDy=0;exitX=0.5;exitY=0;exitDx=0;exitDy=0;" edge="1" parent="1" source="kFgzBcWU6s6wOPXz50ga-2" target="kFgzBcWU6s6wOPXz50ga-23">
          <mxGeometry width="50" height="50" relative="1" as="geometry">
            <mxPoint x="370" y="290" as="sourcePoint" />
            <mxPoint x="420" y="240" as="targetPoint" />
          </mxGeometry>
        </mxCell>
        <mxCell id="kFgzBcWU6s6wOPXz50ga-30" value="" style="endArrow=none;html=1;rounded=0;entryX=0;entryY=0.5;entryDx=0;entryDy=0;exitX=1;exitY=0.5;exitDx=0;exitDy=0;" edge="1" parent="1" source="kFgzBcWU6s6wOPXz50ga-2" target="kFgzBcWU6s6wOPXz50ga-25">
          <mxGeometry width="50" height="50" relative="1" as="geometry">
            <mxPoint x="370" y="290" as="sourcePoint" />
            <mxPoint x="420" y="240" as="targetPoint" />
          </mxGeometry>
        </mxCell>
        <mxCell id="kFgzBcWU6s6wOPXz50ga-31" value="" style="endArrow=none;html=1;rounded=0;exitX=0.5;exitY=0;exitDx=0;exitDy=0;entryX=0.75;entryY=1;entryDx=0;entryDy=0;" edge="1" parent="1" source="kFgzBcWU6s6wOPXz50ga-26" target="kFgzBcWU6s6wOPXz50ga-2">
          <mxGeometry width="50" height="50" relative="1" as="geometry">
            <mxPoint x="370" y="290" as="sourcePoint" />
            <mxPoint x="420" y="240" as="targetPoint" />
          </mxGeometry>
        </mxCell>
        <mxCell id="kFgzBcWU6s6wOPXz50ga-32" value="&lt;p style=&quot;line-height: 1.8; margin-left: 3.25984pt; text-indent: -18pt; margin-top: 0pt; margin-bottom: 6pt; padding: 0pt 0pt 0pt 18pt;&quot; dir=&quot;ltr&quot;&gt;&lt;/p&gt;&lt;div&gt;&lt;/div&gt;&lt;span style=&quot;font-size: 11pt; background-color: transparent; font-variant-numeric: normal; font-variant-east-asian: normal; font-variant-alternates: normal; font-variant-position: normal; vertical-align: baseline;&quot;&gt;a. ¿Cuál es la primary key para la tabla de clientes? Justificar respuesta&lt;br&gt;&lt;br&gt;- El campo de dni debido a que, en la realidad, funge como identificador único de una persona. En México se utiliza el CURP o RFC, por ejemplo.&lt;br&gt;&lt;br&gt;&lt;p style=&quot;line-height: 1.8; margin-left: 3.25984pt; text-indent: -18pt; text-align: justify; margin-top: 0pt; margin-bottom: 6pt; padding: 0pt 0pt 0pt 18pt;&quot; dir=&quot;ltr&quot;&gt;&lt;/p&gt;&lt;div style=&quot;&quot;&gt;&lt;/div&gt;&lt;span style=&quot;font-size: 11pt; background-color: transparent; font-variant-numeric: normal; font-variant-east-asian: normal; font-variant-alternates: normal; font-variant-position: normal; vertical-align: baseline;&quot;&gt;b. ¿Cuál es la primary key para la tabla de planes de internet? Justificar respuesta.&lt;br&gt;&lt;br&gt;- El campo identificador ya que directamente es un campo que permite reconocer un registro en la tabla.&lt;br&gt;&lt;/span&gt;&lt;/span&gt;&lt;span style=&quot;font-size: 14px;&quot; id=&quot;docs-internal-guid-b8ac7562-7fff-12db-51de-947a7bf0a608&quot;&gt;&lt;br&gt;&lt;br class=&quot;Apple-interchange-newline&quot;&gt;c. ¿Cómo serían las relaciones entre tablas? ¿En qué tabla debería haber foreign key? ¿A qué campo de qué tabla hace referencia dicha foreign key?&lt;br&gt;&lt;br&gt;- xLa relación entre Cliente y PlanInternet debería ser de uno a muchos debido a que un Cliente puede tener múltiples planes, sin embargo, un Plan solamente puede estar asignado a un solo Cliente.&lt;br&gt;&lt;span id=&quot;docs-internal-guid-c2402dab-7fff-5e42-21f7-dfc296c54ec6&quot;&gt;&lt;/span&gt;&lt;br&gt;&lt;span id=&quot;docs-internal-guid-c2402dab-7fff-5e42-21f7-dfc296c54ec6&quot;&gt;&lt;/span&gt;&lt;br&gt;&lt;/span&gt;" style="text;html=1;strokeColor=none;fillColor=none;align=left;verticalAlign=top;whiteSpace=wrap;rounded=0;" vertex="1" parent="1">
          <mxGeometry x="40" y="380" width="790" height="300" as="geometry" />
        </mxCell>
        <mxCell id="kFgzBcWU6s6wOPXz50ga-33" value="&lt;span id=&quot;docs-internal-guid-c2402dab-7fff-5e42-21f7-dfc296c54ec6&quot;&gt;&lt;/span&gt;" style="text;html=1;strokeColor=none;fillColor=none;align=center;verticalAlign=middle;whiteSpace=wrap;rounded=0;" vertex="1" parent="1">
          <mxGeometry x="40" y="580" width="60" height="30" as="geometry" />
        </mxCell>
      </root>
    </mxGraphModel>
  </diagram>
</mxfile>
